<?xml version="1.0" standalone="no"?>
<!DOCTYPE svg PUBLIC "-//W3C//DTD SVG 20010904//EN"
 "http://www.w3.org/TR/2001/REC-SVG-20010904/DTD/svg10.dtd">
<svg version="1.0" xmlns="http://www.w3.org/2000/svg"
 width="3508.000000pt" height="2480.000000pt" viewBox="0 0 3508.000000 2480.000000"
 preserveAspectRatio="xMidYMid meet">

<g transform="translate(0.000000,2480.000000) scale(0.100000,-0.100000)"
fill="#000000" stroke="none">
<path d="M17388 21355 l-28 -24 0 -384 0 -384 58 13 c117 28 251 12 374 -44
35 -16 167 -89 293 -164 860 -506 2143 -1250 4140 -2401 1375 -792 1322 -762
1485 -865 74 -47 150 -94 168 -104 l32 -20 -22 -17 c-13 -10 -66 -47 -118 -83
-102 -70 -121 -82 -1675 -981 -2534 -1466 -4213 -2430 -4299 -2467 -87 -37
-191 -53 -317 -48 l-119 4 0 -348 c0 -323 1 -349 18 -356 9 -4 64 -7 122 -6
120 0 209 20 315 69 86 39 1320 744 3525 2013 2756 1586 3806 2201 3788 2217
-2 2 -79 51 -173 110 -160 101 -475 285 -1840 1070 -2430 1398 -2969 1712
-4768 2777 l-757 448 -88 0 c-78 -1 -90 -3 -114 -25z"/>
<path d="M17540 16955 l0 -2945 43 6 c121 18 202 89 239 208 l22 71 0 2535 c0
1824 -3 2566 -11 2645 -10 97 -16 119 -53 192 -61 120 -170 233 -225 233 -13
0 -15 -292 -15 -2945z"/>
<path d="M9902 11988 c4 -3971 5 -4155 22 -4208 27 -84 73 -163 119 -207 26
-25 252 -163 582 -356 2094 -1220 6543 -3792 6559 -3792 5 0 17 34 27 75 17
72 18 231 17 3530 0 1900 -3 3737 -7 4081 l-6 626 -42 84 c-50 101 -132 201
-212 262 -63 47 -1289 764 -2901 1697 -1049 607 -1085 628 -2160 1247 -410
237 -954 551 -1210 698 -263 152 -534 300 -623 342 -87 40 -161 73 -163 73 -3
0 -4 -1869 -2 -4152z m790 3009 c111 -48 674 -368 2168 -1232 173 -100 563
-325 865 -500 1281 -741 2552 -1484 2619 -1533 99 -72 205 -234 242 -367 15
-55 17 -337 21 -3340 6 -3269 4 -3449 -26 -3526 -6 -16 -111 44 -3176 1810
-1171 675 -1695 980 -2264 1317 -288 170 -366 221 -421 274 -75 73 -138 164
-171 249 l-23 56 -4 3362 c-4 3170 -3 3365 13 3415 19 56 24 68 30 68 2 0 59
-24 127 -53z"/>
<path d="M15865 11076 c-49 -29 -556 -322 -1125 -651 -569 -329 -1305 -754
-1635 -945 -330 -191 -890 -515 -1245 -720 -355 -205 -656 -379 -668 -387
l-24 -15 24 -25 c12 -14 56 -52 96 -84 150 -120 284 -173 437 -173 158 1 287
50 542 205 1080 656 2007 1192 3213 1854 221 121 292 169 369 248 120 123 166
237 166 412 0 107 -22 245 -48 306 l-12 28 -90 -53z"/>
<path d="M25075 16101 c-71 -26 -212 -101 -470 -251 -204 -117 -495 -285 -647
-373 l-278 -160 0 -349 0 -350 33 20 c294 178 815 462 847 462 12 0 13 -4609
0 -5935 -7 -841 -9 -883 -28 -956 -25 -92 -80 -205 -136 -277 -46 -60 -74 -78
-463 -307 l-253 -148 0 -349 0 -350 43 25 c162 94 722 418 967 560 223 129
307 183 346 222 54 54 105 148 124 225 8 32 12 1254 17 4188 3 2278 4 4142 2
4141 -2 0 -49 -17 -104 -38z"/>
<path d="M22910 8576 l0 -357 113 -54 c147 -70 217 -88 342 -89 119 0 192 22
302 90 66 41 223 177 223 193 0 4 -39 29 -87 57 -49 28 -259 149 -468 269
-209 120 -390 225 -402 233 l-23 14 0 -356z"/>
</g>
</svg>
